# xmcd CD database file
#
# Track frame offsets:
#	150
#	15888
#	40528
#	62508
#	82753
#	106753
#	122810
#	147290
#	161560
#	184663
#	199685
#	221988
#	237500
#	258318
#	273933
#
# Disc length: 3853 seconds
#
# Revision: 0
# Processed by: cddbd v1.4PL0 Copyright (c) Steve Scherf et al.
# Submitted via: Feurio! 1.63 - http://www.feurio.com
#
DISCID=c20f0b0f
DTITLE=B.B. King - Blues On The Bayou
DYEAR=1900
DGENRE=
TTITLE0=Blues Boys Tune
TTITLE1=Bad Case Of Love
TTITLE2=I´ll Survive
TTITLE3=Mean Ole´ World
TTITLE4=Blues Man
TTITLE5=Broken Promise
TTITLE6=Darlin´ What Happend
TTITLE7=Shake It Up And Go
TTITLE8=Blues We Like
TTITLE9=Good Man Gone Bad
TTITLE10=If I Lost You 
TTITLE11=Tell Me Baby
TTITLE12=I Got Some Outside Help-I Don´t Need
TTITLE13=Blues In "G"
TTITLE14=If That Ain´t It I Quit
EXTD=
EXTT0=
EXTT1=
EXTT2=
EXTT3=
EXTT4=
EXTT5=
EXTT6=
EXTT7=
EXTT8=
EXTT9=
EXTT10=
EXTT11=
EXTT12=
EXTT13=
EXTT14=
PLAYORDER=
